{
    "asset" : {
        "generator" : "Khronos glTF Blender I/O v3.4.50",
        "version" : "2.0"
    },
    "scene" : 0,
    "scenes" : [
        {
            "name" : "Scene",
            "nodes" : [
                0
            ]
        }
    ],
    "nodes" : [
        {
            "mesh" : 0,
            "name" : "fuxiii-2022"
        }
    ],
    "meshes" : [
        {
            "name" : "fuxiii-2022",
            "primitives" : [
                {
                    "attributes" : {
                        "POSITION" : 0,
                        "NORMAL" : 1
                    },
                    "indices" : 2
                }
            ]
        }
    ],
    "accessors" : [
        {
            "bufferView" : 0,
            "componentType" : 5126,
            "count" : 12397,
            "max" : [
                75.17963409423828,
                29.69999885559082,
                15.83023452758789
            ],
            "min" : [
                -74.9084243774414,
                -4.486087799072266,
                -14.471185684204102
            ],
            "type" : "VEC3"
        },
        {
            "bufferView" : 1,
            "componentType" : 5126,
            "count" : 12397,
            "type" : "VEC3"
        },
        {
            "bufferView" : 2,
            "componentType" : 5123,
            "count" : 16233,
            "type" : "SCALAR"
        }
    ],
    "bufferViews" : [
        {
            "buffer" : 0,
            "byteLength" : 148764,
            "byteOffset" : 0,
            "target" : 34962
        },
        {
            "buffer" : 0,
            "byteLength" : 148764,
            "byteOffset" : 148764,
            "target" : 34962
        },
        {
            "buffer" : 0,
            "byteLength" : 32466,
            "byteOffset" : 297528,
            "target" : 34963
        }
    ],
    "buffers" : [
        {
            "byteLength" : 329996,
            "uri" : "data:application/octet-stream;base64,"
        }
    ]
}
