{
    "asset" : {
        "generator" : "Khronos glTF Blender I/O v3.4.50",
        "version" : "2.0"
    },
    "scene" : 0,
    "scenes" : [
        {
            "name" : "Scene",
            "nodes" : [
                0
            ]
        }
    ],
    "nodes" : [
        {
            "mesh" : 0,
            "name" : "Material_Sphere.001",
            "rotation" : [
                0.70710688829422,
                0,
                0,
                0.7071066498756409
            ]
        }
    ],
    "meshes" : [
        {
            "name" : "Material_Sphere.001",
            "primitives" : [
                {
                    "attributes" : {
                        "POSITION" : 0,
                        "TEXCOORD_0" : 1,
                        "NORMAL" : 2,
                        "TANGENT" : 3
                    },
                    "indices" : 4
                }
            ]
        }
    ],
    "accessors" : [
        {
            "bufferView" : 0,
            "componentType" : 5126,
            "count" : 5404,
            "max" : [
                0.6700000166893005,
                1.3464380502700806,
                0.5756298303604126
            ],
            "min" : [
                -0.6700000166893005,
                0.00022298097610473633,
                -0.6700001955032349
            ],
            "type" : "VEC3"
        },
        {
            "bufferView" : 1,
            "componentType" : 5126,
            "count" : 5404,
            "type" : "VEC2"
        },
        {
            "bufferView" : 2,
            "componentType" : 5126,
            "count" : 5404,
            "type" : "VEC3"
        },
        {
            "bufferView" : 3,
            "componentType" : 5126,
            "count" : 5404,
            "type" : "VEC4"
        },
        {
            "bufferView" : 4,
            "componentType" : 5123,
            "count" : 28284,
            "type" : "SCALAR"
        }
    ],
    "bufferViews" : [
        {
            "buffer" : 0,
            "byteLength" : 64848,
            "byteOffset" : 0,
            "target" : 34962
        },
        {
            "buffer" : 0,
            "byteLength" : 43232,
            "byteOffset" : 64848,
            "target" : 34962
        },
        {
            "buffer" : 0,
            "byteLength" : 64848,
            "byteOffset" : 108080,
            "target" : 34962
        },
        {
            "buffer" : 0,
            "byteLength" : 86464,
            "byteOffset" : 172928,
            "target" : 34962
        },
        {
            "buffer" : 0,
            "byteLength" : 56568,
            "byteOffset" : 259392,
            "target" : 34963
        }
    ],
    "buffers" : [
        {
            "byteLength" : 315960,
            "uri" : "data:application/octet-stream;base64,"
        }
    ]
}
