{
	"asset":{
		"generator":"Khronos glTF Blender I/O v3.5.30",
		"version":"2.0"
	},
	"scene":0,
	"scenes":[
		{
			"name":"Scene",
			"nodes":[
				0
			]
		}
	],
	"nodes":[
		{
			"mesh":0,
			"name":"Material_Sphere.001",
			"rotation":[
				0.70710688829422,
				0,
				0,
				0.7071066498756409
			]
		}
	],
	"materials":[
		{
			"doubleSided":true,
			"name":"outside.002",
			"pbrMetallicRoughness":{
				"baseColorFactor":[
					0.5118629932403564,
					0.6216560006141663,
					0.6399999856948853,
					1
				],
				"metallicFactor":0,
				"roughnessFactor":0.690034806728363
			}
		}
	],
	"meshes":[
		{
			"name":"Material_Sphere.001",
			"primitives":[
				{
					"attributes":{
						"POSITION":0,
						"TEXCOORD_0":1,
						"NORMAL":2,
						"TANGENT":3
					},
					"indices":4,
					"material":0
				}
			]
		}
	],
	"accessors":[
		{
			"bufferView":0,
			"componentType":5126,
			"count":5404,
			"max":[
				0.6700000166893005,
				0.5756300091743469,
				0.5755000114440918
			],
			"min":[
				-0.6700000166893005,
				-0.6700000166893005,
				-0.7707149982452393
			],
			"type":"VEC3"
		},
		{
			"bufferView":1,
			"componentType":5126,
			"count":5404,
			"type":"VEC2"
		},
		{
			"bufferView":2,
			"componentType":5126,
			"count":5404,
			"type":"VEC3"
		},
		{
			"bufferView":3,
			"componentType":5126,
			"count":5404,
			"type":"VEC4"
		},
		{
			"bufferView":4,
			"componentType":5123,
			"count":28284,
			"type":"SCALAR"
		}
	],
	"bufferViews":[
		{
			"buffer":0,
			"byteLength":64848,
			"byteOffset":0,
			"target":34962
		},
		{
			"buffer":0,
			"byteLength":43232,
			"byteOffset":64848,
			"target":34962
		},
		{
			"buffer":0,
			"byteLength":64848,
			"byteOffset":108080,
			"target":34962
		},
		{
			"buffer":0,
			"byteLength":86464,
			"byteOffset":172928,
			"target":34962
		},
		{
			"buffer":0,
			"byteLength":56568,
			"byteOffset":259392,
			"target":34963
		}
	],
	"buffers":[
		{
			"byteLength":315960,
			"uri":"data:application/octet-stream;base64,"
		}
	]
}
