{
    "asset": {
        "generator": "Khronos glTF Blender I/O v1.8.19",
        "version": "2.0"
    },
    "scene": 0,
    "scenes": [
        {
            "name": "Scene",
            "nodes": [
                0
            ]
        }
    ],
    "nodes": [
        {
            "mesh": 0,
            "name": "Suzanne",
            "rotation": [
                0.7071068286895752,
                0,
                0,
                0.7071067094802856
            ]
        }
    ],
    "materials": [
        {
            "doubleSided": true,
            "name": "Default OBJ",
            "pbrMetallicRoughness": {
                "baseColorFactor": [
                    0.800000011920929,
                    0.800000011920929,
                    0.800000011920929,
                    1
                ],
                "metallicFactor": 0,
                "roughnessFactor": 0.5
            }
        }
    ],
    "meshes": [
        {
            "name": "Suzanne",
            "primitives": [
                {
                    "mode": 4,
                    "attributes": {
                        "POSITION": 0,
                        "NORMAL": 1,
                        "TEXCOORD_0": 2
                    },
                    "indices": 3,
                    "material": 0
                }
            ]
        }
    ],
    "accessors": [
        {
            "bufferView": 0,
            "componentType": 5126,
            "count": 9908,
            "max": [
                1.330683946609497,
                0.8228960037231445,
                0.9730830192565918
            ],
            "min": [
                -1.330683946609497,
                -0.7838900089263916,
                -0.9419559836387634
            ],
            "type": "VEC3"
        },
        {
            "bufferView": 1,
            "componentType": 5126,
            "count": 9908,
            "type": "VEC3"
        },
        {
            "bufferView": 2,
            "componentType": 5126,
            "count": 9908,
            "type": "VEC2"
        },
        {
            "bufferView": 3,
            "componentType": 5123,
            "count": 47232,
            "type": "SCALAR"
        }
    ],
    "bufferViews": [
        {
            "buffer": 0,
            "byteLength": 118896,
            "byteOffset": 0
        },
        {
            "buffer": 0,
            "byteLength": 118896,
            "byteOffset": 118896
        },
        {
            "buffer": 0,
            "byteLength": 79264,
            "byteOffset": 237792
        },
        {
            "buffer": 0,
            "byteLength": 94464,
            "byteOffset": 317056
        }
    ],
    "buffers": [
        {
            "byteLength": 411520,
            "uri": "data:application/octet-stream;base64,"
        }
    ]
}