{
    "asset" : {
        "generator" : "Khronos glTF Blender I/O v1.0.5",
        "version" : "2.0"
    },
    "scene" : 0,
    "scenes" : [
        {
            "name" : "Scene",
            "nodes" : [
                0
            ]
        }
    ],
    "nodes" : [
        {
            "mesh" : 0,
            "name" : "torusknot",
            "rotation" : [
                1,
                0,
                0,
                -1.3435887069590535e-07
            ],
            "scale" : [
                0.037104617804288864,
                0.037104617804288864,
                0.037104617804288864
            ]
        }
    ],
    "materials" : [
        {
            "doubleSided" : true,
            "name" : "Default OBJ.001",
            "pbrMetallicRoughness" : {
                "baseColorFactor" : [
                    0.800000011920929,
                    0.800000011920929,
                    0.800000011920929,
                    1
                ],
                "metallicFactor" : 0,
                "roughnessFactor" : 0.5
            }
        }
    ],
    "meshes" : [
        {
            "name" : "torusknot.001",
            "primitives" : [
                {
                    "attributes" : {
                        "POSITION" : 0,
                        "NORMAL" : 1,
                        "TEXCOORD_0" : 2
                    },
                    "indices" : 3,
                    "material" : 0
                }
            ]
        }
    ],
    "accessors" : [
        {
            "bufferView" : 0,
            "componentType" : 5126,
            "count" : 1573,
            "max" : [
                20.404155731201172,
                25.095048904418945,
                18.69830894470215
            ],
            "min" : [
                -26.926212310791016,
                -25.094772338867188,
                -18.698795318603516
            ],
            "type" : "VEC3"
        },
        {
            "bufferView" : 1,
            "componentType" : 5126,
            "count" : 1573,
            "type" : "VEC3"
        },
        {
            "bufferView" : 2,
            "componentType" : 5126,
            "count" : 1573,
            "type" : "VEC2"
        },
        {
            "bufferView" : 3,
            "componentType" : 5123,
            "count" : 8640,
            "type" : "SCALAR"
        }
    ],
    "bufferViews" : [
        {
            "buffer" : 0,
            "byteLength" : 18876,
            "byteOffset" : 0
        },
        {
            "buffer" : 0,
            "byteLength" : 18876,
            "byteOffset" : 18876
        },
        {
            "buffer" : 0,
            "byteLength" : 12584,
            "byteOffset" : 37752
        },
        {
            "buffer" : 0,
            "byteLength" : 17280,
            "byteOffset" : 50336
        }
    ],
    "buffers" : [
        {
            "byteLength" : 67616,
            "uri" : "data:application/octet-stream;base64,"
        }
    ]
}
