{
    "asset" : {
        "generator" : "Khronos glTF Blender I/O v1.0.5",
        "version" : "2.0"
    },
    "scene" : 0,
    "scenes" : [
        {
            "name" : "Scene",
            "nodes" : [
                0
            ]
        }
    ],
    "nodes" : [
        {
            "mesh" : 0,
            "name" : "Box001",
            "rotation" : [
                0.7071068286895752,
                0,
                0,
                0.7071067094802856
            ],
            "scale" : [
                0.19999998807907104,
                0.20000001788139343,
                0.20000001788139343
            ],
            "translation" : [
                0,
                0.14757418632507324,
                0
            ]
        }
    ],
    "materials" : [
        {
            "doubleSided" : true,
            "name" : "venus.002",
            "pbrMetallicRoughness" : {
                "baseColorFactor" : [
                    1,
                    1,
                    1,
                    1
                ],
                "metallicFactor" : 1,
                "roughnessFactor" : 0.858578622341156
            }
        }
    ],
    "meshes" : [
        {
            "name" : "Mesh.002",
            "primitives" : [
                {
                    "attributes" : {
                        "POSITION" : 0,
                        "NORMAL" : 1,
                        "TEXCOORD_0" : 2
                    },
                    "indices" : 3,
                    "material" : 0
                }
            ]
        }
    ],
    "accessors" : [
        {
            "bufferView" : 0,
            "componentType" : 5126,
            "count" : 28824,
            "max" : [
                2.087251901626587,
                1.1887321472167969,
                5.734976291656494
            ],
            "min" : [
                -1.6462152004241943,
                -2.0122337341308594,
                -4.363168239593506
            ],
            "type" : "VEC3"
        },
        {
            "bufferView" : 1,
            "componentType" : 5126,
            "count" : 28824,
            "type" : "VEC3"
        },
        {
            "bufferView" : 2,
            "componentType" : 5126,
            "count" : 28824,
            "type" : "VEC2"
        },
        {
            "bufferView" : 3,
            "componentType" : 5123,
            "count" : 94194,
            "type" : "SCALAR"
        }
    ],
    "bufferViews" : [
        {
            "buffer" : 0,
            "byteLength" : 345888,
            "byteOffset" : 0
        },
        {
            "buffer" : 0,
            "byteLength" : 345888,
            "byteOffset" : 345888
        },
        {
            "buffer" : 0,
            "byteLength" : 230592,
            "byteOffset" : 691776
        },
        {
            "buffer" : 0,
            "byteLength" : 188388,
            "byteOffset" : 922368
        }
    ],
    "buffers" : [
        {
            "byteLength" : 1110756,
            "uri" : "data:application/octet-stream;base64,"
        }
    ]
}
